# xmcd
#
# Track frame offsets: 
#        150
#        21775
#        44012
#        60005
#        92982
#        110606
#        127614
#        144904
#        154625
#        179155
#        194908
#
# Disc length: 2916 seconds
#
# Revision: 0
# Processed by: cddbd v1.5PL3 Copyright (c) Steve Scherf et al.
# Submitted via: ExactAudioCopy v0.95a5
#
DISCID=950b620b
DTITLE=Damian Quinones - New Movements in the Old School
DYEAR=2003
DGENRE=R&B
TTITLE0=March 10th
TTITLE1=Anything You Want
TTITLE2=Peace Pipe
TTITLE3=Passing Time
TTITLE4=A Million Miles Away
TTITLE5=Baby I'm Feeling You
TTITLE6=Slow and Easy
TTITLE7=S.H.I.T.
TTITLE8=Guess I'm Better Off...
TTITLE9=Chinese Jumping Jacks
TTITLE10=Sold On Each Other
EXTD=
EXTT0=
EXTT1=
EXTT2=
EXTT3=
EXTT4=
EXTT5=
EXTT6=
EXTT7=
EXTT8=
EXTT9=
EXTT10=
PLAYORDER=
